<svg width="16" height="16" viewBox="0 0 16 16" fill="none" xmlns="http://www.w3.org/2000/svg">
<g clip-path="url(#clip0_812_1182)">
<path d="M4.8 12.8C3.92 12.8 3.2 13.52 3.2 14.4C3.2 15.28 3.92 16 4.8 16C5.68 16 6.4 15.28 6.4 14.4C6.4 13.52 5.68 12.8 4.8 12.8ZM0 0V1.6H1.6L4.48 7.68L3.36 9.6C3.28 9.84 3.2 10.16 3.2 10.4C3.2 11.28 3.92 12 4.8 12H14.4V10.4H5.12C5.04 10.4 4.96 10.32 4.96 10.24V10.16L5.68 8.79997H11.6C12.24 8.79997 12.72 8.47997 12.96 7.99997L15.84 2.8C16 2.64 16 2.56 16 2.4C16 1.92 15.68 1.6 15.2 1.6H3.36L2.64 0H0ZM12.8 12.8C11.92 12.8 11.2 13.52 11.2 14.4C11.2 15.28 11.92 16 12.8 16C13.68 16 14.4 15.28 14.4 14.4C14.4 13.52 13.68 12.8 12.8 12.8Z" fill="white"/>
</g>
<defs>
<clipPath id="clip0_812_1182">
<rect width="16" height="16" fill="white"/>
</clipPath>
</defs>
</svg>
