<svg width="32" height="32" viewBox="0 0 32 32" fill="none" xmlns="http://www.w3.org/2000/svg">
<g clip-path="url(#clip0_812_1031)">
<path d="M23.6684 2.48278C23.4119 1.2254 22.2979 0.275879 20.9655 0.275879C20.6604 0.275879 20.4138 0.5225 20.4138 0.827603C20.4138 1.13271 20.6604 1.37933 20.9655 1.37933C21.8781 1.37933 22.6207 2.12195 22.6207 3.0345C22.6207 3.94705 21.8781 4.68967 20.9655 4.68967C20.6604 4.68967 20.4138 4.93629 20.4138 5.2414C20.4138 5.5465 20.6604 5.79312 20.9655 5.79312C22.2974 5.79312 23.4119 4.8436 23.6684 3.58622H30.8966V8.55174H1.10345V3.58622H8.82759H10.4828C10.7879 3.58622 11.0345 3.3396 11.0345 3.0345C11.0345 2.7294 10.7879 2.48278 10.4828 2.48278H9.48083C9.70924 1.84167 10.3161 1.37933 11.0345 1.37933C11.947 1.37933 12.6897 2.12195 12.6897 3.0345C12.6897 3.94705 11.947 4.68967 11.0345 4.68967C10.7294 4.68967 10.4828 4.93629 10.4828 5.2414C10.4828 5.5465 10.7294 5.79312 11.0345 5.79312C12.5556 5.79312 13.7931 4.5556 13.7931 3.0345C13.7931 1.5134 12.5556 0.275879 11.0345 0.275879C9.70262 0.275879 8.58814 1.2254 8.33159 2.48278H0V9.65519V31.7242H32V9.65519V2.48278H23.6684ZM30.8966 30.6207H1.10345V9.65519H30.8966V30.6207Z" fill="black"/>
<path d="M14.3449 1.37933C15.2575 1.37933 16.0001 2.12195 16.0001 3.0345C16.0001 3.94705 15.2575 4.68967 14.3449 4.68967C14.0398 4.68967 13.7932 4.93629 13.7932 5.2414C13.7932 5.5465 14.0398 5.79312 14.3449 5.79312C15.866 5.79312 17.1036 4.5556 17.1036 3.0345C17.1036 1.5134 15.866 0.275879 14.3449 0.275879C14.0398 0.275879 13.7932 0.5225 13.7932 0.827603C13.7932 1.13271 14.0398 1.37933 14.3449 1.37933Z" fill="black"/>
<path d="M17.6552 1.37933C18.5678 1.37933 19.3104 2.12195 19.3104 3.0345C19.3104 3.94705 18.5678 4.68967 17.6552 4.68967C17.3501 4.68967 17.1035 4.93629 17.1035 5.2414C17.1035 5.5465 17.3501 5.79312 17.6552 5.79312C19.1763 5.79312 20.4139 4.5556 20.4139 3.0345C20.4139 1.5134 19.1763 0.275879 17.6552 0.275879C17.3501 0.275879 17.1035 0.5225 17.1035 0.827603C17.1035 1.13271 17.3501 1.37933 17.6552 1.37933Z" fill="black"/>
<path d="M12.1379 14.0688C12.4426 14.0688 12.6896 13.8218 12.6896 13.5171C12.6896 13.2123 12.4426 12.9653 12.1379 12.9653C11.8332 12.9653 11.5862 13.2123 11.5862 13.5171C11.5862 13.8218 11.8332 14.0688 12.1379 14.0688Z" fill="black"/>
<path d="M16 14.0688C16.3047 14.0688 16.5517 13.8218 16.5517 13.5171C16.5517 13.2123 16.3047 12.9653 16 12.9653C15.6953 12.9653 15.4482 13.2123 15.4482 13.5171C15.4482 13.8218 15.6953 14.0688 16 14.0688Z" fill="black"/>
<path d="M19.862 14.0688C20.1667 14.0688 20.4138 13.8218 20.4138 13.5171C20.4138 13.2123 20.1667 12.9653 19.862 12.9653C19.5573 12.9653 19.3103 13.2123 19.3103 13.5171C19.3103 13.8218 19.5573 14.0688 19.862 14.0688Z" fill="black"/>
<path d="M23.7241 14.0688C24.0288 14.0688 24.2758 13.8218 24.2758 13.5171C24.2758 13.2123 24.0288 12.9653 23.7241 12.9653C23.4194 12.9653 23.1724 13.2123 23.1724 13.5171C23.1724 13.8218 23.4194 14.0688 23.7241 14.0688Z" fill="black"/>
<path d="M27.5861 14.0688C27.8909 14.0688 28.1379 13.8218 28.1379 13.5171C28.1379 13.2123 27.8909 12.9653 27.5861 12.9653C27.2814 12.9653 27.0344 13.2123 27.0344 13.5171C27.0344 13.8218 27.2814 14.0688 27.5861 14.0688Z" fill="black"/>
<path d="M4.41378 18.4828C4.71849 18.4828 4.96551 18.2358 4.96551 17.9311C4.96551 17.6264 4.71849 17.3794 4.41378 17.3794C4.10908 17.3794 3.86206 17.6264 3.86206 17.9311C3.86206 18.2358 4.10908 18.4828 4.41378 18.4828Z" fill="black"/>
<path d="M8.27585 18.4828C8.58055 18.4828 8.82757 18.2358 8.82757 17.9311C8.82757 17.6264 8.58055 17.3794 8.27585 17.3794C7.97114 17.3794 7.72412 17.6264 7.72412 17.9311C7.72412 18.2358 7.97114 18.4828 8.27585 18.4828Z" fill="black"/>
<path d="M12.1379 18.4828C12.4426 18.4828 12.6896 18.2358 12.6896 17.9311C12.6896 17.6264 12.4426 17.3794 12.1379 17.3794C11.8332 17.3794 11.5862 17.6264 11.5862 17.9311C11.5862 18.2358 11.8332 18.4828 12.1379 18.4828Z" fill="black"/>
<path d="M16 18.4828C16.3047 18.4828 16.5517 18.2358 16.5517 17.9311C16.5517 17.6264 16.3047 17.3794 16 17.3794C15.6953 17.3794 15.4482 17.6264 15.4482 17.9311C15.4482 18.2358 15.6953 18.4828 16 18.4828Z" fill="black"/>
<path d="M19.862 18.4828C20.1667 18.4828 20.4138 18.2358 20.4138 17.9311C20.4138 17.6264 20.1667 17.3794 19.862 17.3794C19.5573 17.3794 19.3103 17.6264 19.3103 17.9311C19.3103 18.2358 19.5573 18.4828 19.862 18.4828Z" fill="black"/>
<path d="M23.7241 18.4828C24.0288 18.4828 24.2758 18.2358 24.2758 17.9311C24.2758 17.6264 24.0288 17.3794 23.7241 17.3794C23.4194 17.3794 23.1724 17.6264 23.1724 17.9311C23.1724 18.2358 23.4194 18.4828 23.7241 18.4828Z" fill="black"/>
<path d="M27.5861 18.4828C27.8909 18.4828 28.1379 18.2358 28.1379 17.9311C28.1379 17.6264 27.8909 17.3794 27.5861 17.3794C27.2814 17.3794 27.0344 17.6264 27.0344 17.9311C27.0344 18.2358 27.2814 18.4828 27.5861 18.4828Z" fill="black"/>
<path d="M4.41378 22.3447C4.71849 22.3447 4.96551 22.0976 4.96551 21.7929C4.96551 21.4882 4.71849 21.2412 4.41378 21.2412C4.10908 21.2412 3.86206 21.4882 3.86206 21.7929C3.86206 22.0976 4.10908 22.3447 4.41378 22.3447Z" fill="black"/>
<path d="M8.27585 22.3447C8.58055 22.3447 8.82757 22.0976 8.82757 21.7929C8.82757 21.4882 8.58055 21.2412 8.27585 21.2412C7.97114 21.2412 7.72412 21.4882 7.72412 21.7929C7.72412 22.0976 7.97114 22.3447 8.27585 22.3447Z" fill="black"/>
<path d="M12.1379 22.3447C12.4426 22.3447 12.6896 22.0976 12.6896 21.7929C12.6896 21.4882 12.4426 21.2412 12.1379 21.2412C11.8332 21.2412 11.5862 21.4882 11.5862 21.7929C11.5862 22.0976 11.8332 22.3447 12.1379 22.3447Z" fill="black"/>
<path d="M16 22.3447C16.3047 22.3447 16.5517 22.0976 16.5517 21.7929C16.5517 21.4882 16.3047 21.2412 16 21.2412C15.6953 21.2412 15.4482 21.4882 15.4482 21.7929C15.4482 22.0976 15.6953 22.3447 16 22.3447Z" fill="black"/>
<path d="M19.862 22.3447C20.1667 22.3447 20.4138 22.0976 20.4138 21.7929C20.4138 21.4882 20.1667 21.2412 19.862 21.2412C19.5573 21.2412 19.3103 21.4882 19.3103 21.7929C19.3103 22.0976 19.5573 22.3447 19.862 22.3447Z" fill="black"/>
<path d="M23.7241 22.3447C24.0288 22.3447 24.2758 22.0976 24.2758 21.7929C24.2758 21.4882 24.0288 21.2412 23.7241 21.2412C23.4194 21.2412 23.1724 21.4882 23.1724 21.7929C23.1724 22.0976 23.4194 22.3447 23.7241 22.3447Z" fill="black"/>
<path d="M27.5861 22.3447C27.8909 22.3447 28.1379 22.0976 28.1379 21.7929C28.1379 21.4882 27.8909 21.2412 27.5861 21.2412C27.2814 21.2412 27.0344 21.4882 27.0344 21.7929C27.0344 22.0976 27.2814 22.3447 27.5861 22.3447Z" fill="black"/>
<path d="M4.41378 26.7587C4.71849 26.7587 4.96551 26.5117 4.96551 26.207C4.96551 25.9023 4.71849 25.6553 4.41378 25.6553C4.10908 25.6553 3.86206 25.9023 3.86206 26.207C3.86206 26.5117 4.10908 26.7587 4.41378 26.7587Z" fill="black"/>
<path d="M8.27585 26.7587C8.58055 26.7587 8.82757 26.5117 8.82757 26.207C8.82757 25.9023 8.58055 25.6553 8.27585 25.6553C7.97114 25.6553 7.72412 25.9023 7.72412 26.207C7.72412 26.5117 7.97114 26.7587 8.27585 26.7587Z" fill="black"/>
<path d="M12.1379 26.7587C12.4426 26.7587 12.6896 26.5117 12.6896 26.207C12.6896 25.9023 12.4426 25.6553 12.1379 25.6553C11.8332 25.6553 11.5862 25.9023 11.5862 26.207C11.5862 26.5117 11.8332 26.7587 12.1379 26.7587Z" fill="black"/>
<path d="M16 26.7587C16.3047 26.7587 16.5517 26.5117 16.5517 26.207C16.5517 25.9023 16.3047 25.6553 16 25.6553C15.6953 25.6553 15.4482 25.9023 15.4482 26.207C15.4482 26.5117 15.6953 26.7587 16 26.7587Z" fill="black"/>
<path d="M19.862 26.7587C20.1667 26.7587 20.4138 26.5117 20.4138 26.207C20.4138 25.9023 20.1667 25.6553 19.862 25.6553C19.5573 25.6553 19.3103 25.9023 19.3103 26.207C19.3103 26.5117 19.5573 26.7587 19.862 26.7587Z" fill="black"/>
</g>
<defs>
<clipPath id="clip0_812_1031">
<rect width="32" height="32" fill="white"/>
</clipPath>
</defs>
</svg>
