<svg width="32" height="32" viewBox="0 0 32 32" fill="none" xmlns="http://www.w3.org/2000/svg">
<g clip-path="url(#clip0_812_1018)">
<path d="M27.6011 11.6548C21.1746 5.22834 10.7189 5.22834 4.29243 11.6548L0 15.9467L4.39892 20.3456C7.61189 23.5586 11.8324 25.1656 16.0535 25.1656C20.2746 25.1656 24.4946 23.5591 27.7081 20.3456L32.0005 16.0532L27.6011 11.6548ZM26.9432 19.5813C20.9384 25.5856 11.1681 25.5856 5.16324 19.5813L1.52865 15.9467L5.05676 12.4186C11.0616 6.41429 20.8319 6.41429 26.8368 12.4186L30.4714 16.0532L26.9432 19.5813Z" fill="black"/>
<path d="M15.4444 11.6597C13.3579 11.6597 11.6606 13.357 11.6606 15.4435C11.6606 15.7418 11.9028 15.984 12.2012 15.984C12.4996 15.984 12.7417 15.7418 12.7417 15.4435C12.7417 13.9532 13.9542 12.7407 15.4444 12.7407C15.7428 12.7407 15.985 12.4986 15.985 12.2002C15.985 11.9018 15.7433 11.6597 15.4444 11.6597Z" fill="black"/>
<path d="M15.985 8.95703C12.1104 8.95703 8.95801 12.1095 8.95801 15.9841C8.95801 19.8587 12.1104 23.0111 15.985 23.0111C19.8596 23.0111 23.0121 19.8587 23.0121 15.9841C23.0121 12.1095 19.8602 8.95703 15.985 8.95703ZM15.985 21.93C12.7067 21.93 10.0391 19.2624 10.0391 15.9841C10.0391 12.7057 12.7067 10.0381 15.985 10.0381C19.2634 10.0381 21.931 12.7057 21.931 15.9841C21.931 19.2624 19.264 21.93 15.985 21.93Z" fill="black"/>
</g>
<defs>
<clipPath id="clip0_812_1018">
<rect width="32" height="32" fill="white"/>
</clipPath>
</defs>
</svg>
