<svg width="32" height="32" viewBox="0 0 32 32" fill="none" xmlns="http://www.w3.org/2000/svg">
<g clip-path="url(#clip0_812_1063)">
<path d="M31.9925 10.7567C31.9962 10.7349 31.9984 10.7135 31.9994 10.6911C32.0005 10.665 32 10.6399 31.9978 10.6138C31.9957 10.5914 31.9925 10.57 31.9872 10.5481C31.9813 10.5225 31.9733 10.498 31.9637 10.4735C31.9589 10.4607 31.9578 10.4473 31.9519 10.4351C31.9477 10.426 31.9402 10.4191 31.9354 10.41C31.9306 10.4009 31.9285 10.3913 31.9231 10.3822L26.5886 1.84692C26.564 1.80797 26.5352 1.77277 26.5027 1.74183C26.5021 1.74129 26.5016 1.74129 26.5011 1.74076C26.4552 1.69755 26.4008 1.66661 26.3426 1.64207C26.3352 1.63887 26.3304 1.63247 26.3224 1.62927C26.3165 1.62713 26.3101 1.6282 26.3042 1.6266C26.2503 1.60846 26.1949 1.59619 26.1367 1.59619H5.86532C5.80771 1.59619 5.75276 1.60846 5.69995 1.62607C5.69408 1.62767 5.68821 1.6266 5.68288 1.62873C5.67488 1.6314 5.67008 1.6378 5.66261 1.641C5.60713 1.66394 5.55485 1.69381 5.5095 1.73436C5.50684 1.73702 5.5031 1.73862 5.50044 1.74076C5.46736 1.7717 5.43802 1.80744 5.41348 1.84638L0.0789037 10.3817C0.0735691 10.3902 0.0714353 10.4004 0.0666342 10.4094C0.0618331 10.4185 0.0543647 10.4255 0.050097 10.4345C0.044229 10.4468 0.043162 10.4601 0.0378275 10.4729C0.0282252 10.4975 0.0202234 10.522 0.0143553 10.5476C0.0095542 10.5695 0.00582 10.5914 0.00368616 10.6138C-4.80409e-05 10.6399 -0.000581499 10.6655 0.000485417 10.6911C0.00155233 10.7135 0.00368616 10.7349 0.00742037 10.7567C0.011688 10.7823 0.018623 10.8074 0.0271583 10.8325C0.0340933 10.8533 0.0415617 10.8736 0.0511639 10.8938C0.055965 10.9034 0.0575654 10.9141 0.0629 10.9237C0.0714353 10.9392 0.0842383 10.9509 0.0938405 10.9653C0.101309 10.9765 0.105577 10.9888 0.114645 10.9995L15.5791 30.1965C15.5801 30.1981 15.5812 30.1991 15.5823 30.2002L15.5849 30.2039C15.5865 30.2061 15.5892 30.2066 15.5908 30.2087C15.6345 30.2615 15.6889 30.3016 15.7482 30.3336C15.7642 30.3421 15.7791 30.3496 15.7956 30.3565C15.8602 30.3837 15.9285 30.4029 16 30.4029C16.0608 30.4029 16.1221 30.3922 16.1829 30.3704C16.192 30.3672 16.1979 30.3597 16.2069 30.356C16.2341 30.3448 16.2555 30.3266 16.28 30.3112C16.3206 30.2856 16.3584 30.2589 16.3899 30.2242C16.3974 30.2162 16.4086 30.2125 16.4155 30.2039L31.8858 10.9995C31.8943 10.9888 31.8986 10.976 31.9066 10.9653C31.9167 10.9509 31.929 10.9392 31.9375 10.9237C31.9429 10.9141 31.9445 10.9034 31.9493 10.8938C31.9589 10.8736 31.9663 10.8538 31.9733 10.8325C31.9807 10.8074 31.9882 10.7829 31.9925 10.7567ZM17.1213 2.66364H25.368L22.7754 9.6226L17.1213 2.66364ZM21.8141 10.132H10.1863L16 2.97678L21.8141 10.132ZM9.18716 9.66901L6.6271 2.66364H14.8792L9.18716 9.66901ZM22.1881 11.199L15.9066 28.0594L9.74569 11.199H22.1881ZM26.2573 3.33206L30.5073 10.1326H23.7239L26.2573 3.33206ZM5.73782 3.339L8.22 10.132H1.49257L5.73782 3.339ZM8.60996 11.199L14.3921 27.0235L1.6446 11.199H8.60996ZM17.2787 27.4321L23.3265 11.199H30.3553L17.2787 27.4321Z" fill="black"/>
</g>
<defs>
<clipPath id="clip0_812_1063">
<rect width="32" height="32" fill="white"/>
</clipPath>
</defs>
</svg>
