<svg width="32" height="33" viewBox="0 0 32 33" fill="none" xmlns="http://www.w3.org/2000/svg">
<g clip-path="url(#clip0_862_380)">
<path d="M12.4952 9.31667H25.0664C25.3608 9.31667 25.5998 9.07827 25.5998 8.78333C25.5998 8.4884 25.3608 8.25 25.0664 8.25H12.4952C12.2008 8.25 11.9619 8.4884 11.9619 8.78333C11.9619 9.07827 12.2008 9.31667 12.4952 9.31667Z" fill="black"/>
<path d="M12.4952 17.3167H25.0664C25.3608 17.3167 25.5998 17.0783 25.5998 16.7833C25.5998 16.4884 25.3608 16.25 25.0664 16.25H12.4952C12.2008 16.25 11.9619 16.4884 11.9619 16.7833C11.9619 17.0783 12.2008 17.3167 12.4952 17.3167Z" fill="black"/>
<path d="M12.4952 25.3167H25.0664C25.3608 25.3167 25.5998 25.0783 25.5998 24.7833C25.5998 24.4884 25.3608 24.25 25.0664 24.25H12.4952C12.2008 24.25 11.9619 24.4884 11.9619 24.7833C11.9619 25.0783 12.2008 25.3167 12.4952 25.3167Z" fill="black"/>
<path d="M31.4667 0.25H0.533333C0.238933 0.25 0 0.4884 0 0.783333V31.7167C0 32.0116 0.238933 32.25 0.533333 32.25H31.4667C31.7611 32.25 32 32.0116 32 31.7167V0.783333C32 0.4884 31.7611 0.25 31.4667 0.25ZM30.9333 31.1833H1.06667V1.31667H30.9333V31.1833Z" fill="black"/>
<path d="M6.66674 10.1028L7.96168 9.42177L9.25661 10.1028L9.00968 8.6607L10.0571 7.63883L8.60914 7.4287L7.96168 6.1167L7.31421 7.4287L5.86621 7.63883L6.91421 8.6607L6.66674 10.1028Z" fill="black"/>
<path d="M6.66674 18.147L7.96168 17.466L9.25661 18.147L9.00968 16.7049L10.0571 15.6836L8.60914 15.4729L7.96168 14.1609L7.31421 15.4729L5.86621 15.6836L6.91421 16.7049L6.66674 18.147Z" fill="black"/>
<path d="M6.66674 26.3834L7.96168 25.7023L9.25661 26.3834L9.00968 24.9412L10.0571 23.9199L8.60914 23.7092L7.96168 22.3972L7.31421 23.7092L5.86621 23.9199L6.91421 24.9412L6.66674 26.3834Z" fill="black"/>
</g>
<defs>
<clipPath id="clip0_862_380">
<rect width="32" height="32" fill="white" transform="translate(0 0.25)"/>
</clipPath>
</defs>
</svg>
