<svg width="32" height="33" viewBox="0 0 32 33" fill="none" xmlns="http://www.w3.org/2000/svg">
<g clip-path="url(#clip0_862_367)">
<path d="M15.9999 14.1166C18.0586 14.1166 19.7333 12.4414 19.7333 10.3832C19.7333 8.3251 18.0586 6.6499 15.9999 6.6499C13.9413 6.6499 12.2666 8.3251 12.2666 10.3832C12.2666 12.4414 13.9413 14.1166 15.9999 14.1166ZM15.9999 7.71657C17.4703 7.71657 18.6666 8.91284 18.6666 10.3832C18.6666 11.8536 17.4703 13.0499 15.9999 13.0499C14.5295 13.0499 13.3333 11.8536 13.3333 10.3832C13.3333 8.91284 14.5295 7.71657 15.9999 7.71657Z" fill="black"/>
<path d="M15.9055 29.4537L24.0874 17.6367C27.1562 13.5455 26.7124 6.82067 23.1375 3.24627C21.2058 1.314 18.6372 0.25 15.9055 0.25C13.1738 0.25 10.6052 1.314 8.67349 3.24573C5.09855 6.82013 4.65482 13.5449 7.71135 17.6201L15.9055 29.4537ZM9.42762 3.99987C11.1583 2.26973 13.4586 1.31667 15.9055 1.31667C18.3524 1.31667 20.6527 2.26973 22.3834 3.99987C25.61 7.226 26.0074 13.2996 23.2223 17.0127L15.9055 27.5796L8.57696 16.9967C5.80362 13.2996 6.20149 7.226 9.42762 3.99987Z" fill="black"/>
<path d="M22.4624 23.187C22.1691 23.1513 21.9045 23.3614 21.8704 23.6542C21.8363 23.947 22.0453 24.2121 22.3376 24.2462C27.9461 24.9065 30.9333 26.6857 30.9333 27.7166C30.9333 29.1641 25.2523 31.1833 16 31.1833C6.74773 31.1833 1.06667 29.1641 1.06667 27.7166C1.06667 26.6857 4.05387 24.9065 9.6624 24.2462C9.95467 24.2121 10.1637 23.9465 10.1296 23.6542C10.0949 23.3614 9.8304 23.1502 9.5376 23.187C3.92213 23.8484 0 25.7108 0 27.7166C0 29.9694 5.496 32.25 16 32.25C26.504 32.25 32 29.9694 32 27.7166C32 25.7108 28.0779 23.8484 22.4624 23.187Z" fill="black"/>
</g>
<defs>
<clipPath id="clip0_862_367">
<rect width="32" height="32" fill="white" transform="translate(0 0.25)"/>
</clipPath>
</defs>
</svg>
