<svg width="32" height="33" viewBox="0 0 32 33" fill="none" xmlns="http://www.w3.org/2000/svg">
<g clip-path="url(#clip0_862_362)">
<path d="M31.9286 22.2366C31.7066 21.4277 31.0283 20.8257 30.1987 20.7013V8.54146H31.2583C31.5509 8.54146 31.7881 8.30424 31.7881 8.01166V2.71364C31.7881 2.4208 31.5509 2.18384 31.2583 2.18384H7.94703C7.65445 2.18384 7.41723 2.4208 7.41723 2.71364V8.01166C7.41723 8.30424 7.65445 8.54146 7.94703 8.54146H9.00663V19.1375H8.47683C7.1619 19.1344 5.87387 19.5113 4.76822 20.223V17.5481C4.76822 17.2553 4.531 17.0183 4.23842 17.0183H0.529802C0.237221 17.0183 0 17.2553 0 17.5481V29.7335C0 30.0261 0.237221 30.2633 0.529802 30.2633H4.23842C4.531 30.2633 4.76822 30.0261 4.76822 29.7335V27.0589C5.87413 27.7701 7.1619 28.147 8.47683 28.1441H17.1761C17.7789 28.1431 18.3788 28.0639 18.9611 27.9087L30.4318 24.836C31.5605 24.5284 32.2292 23.3674 31.9286 22.2366ZM8.47683 3.24344H30.7285V7.48186H8.47683V3.24344ZM10.0662 8.54146H29.1391V20.7924L22.9902 22.4413C22.737 21.8375 22.2204 21.384 21.5889 21.2109L14.4503 19.2963C14.0483 19.1905 13.6344 19.137 13.2187 19.1375H10.0662V8.54146ZM3.70861 29.2037H1.0596V18.0779H3.70861V29.2037ZM30.1568 23.8123L18.6882 26.8851C18.1949 27.0168 17.6868 27.0838 17.1761 27.0845H8.47683C7.21545 27.0874 5.98743 26.6781 4.98009 25.9189L4.76822 25.76V21.5216L4.98009 21.3625C5.98743 20.6033 7.21545 20.1937 8.47683 20.1971H13.2187C13.5423 20.1968 13.8649 20.2388 14.1782 20.3215L21.3144 22.2346C21.7361 22.3507 22.0447 22.7121 22.0928 23.147C22.0985 23.1687 22.1055 23.1902 22.1141 23.2111C22.1078 23.2339 22.1032 23.2569 22.1001 23.2805C22.1006 23.3666 22.089 23.4525 22.0652 23.5353C21.9405 23.997 21.5222 24.3181 21.0438 24.3189C20.9505 24.3196 20.8578 24.3077 20.7678 24.2839L16.2645 23.0764C16.0798 23.0215 15.8798 23.0712 15.7422 23.2062C15.6048 23.3413 15.5513 23.5402 15.6028 23.7259C15.6543 23.9114 15.8025 24.0547 15.99 24.0995L20.4934 25.3076C20.6731 25.3549 20.8586 25.3787 21.0449 25.3785C21.9974 25.3779 22.8322 24.7408 23.0839 23.8219C23.1134 23.7156 23.1333 23.6069 23.1439 23.4972L29.6027 21.7653C29.6487 21.7537 29.6987 21.7418 29.7457 21.734C30.2732 21.666 30.7691 21.9994 30.9055 22.5132C30.9293 22.6027 30.9412 22.695 30.9404 22.7877C30.9412 23.2673 30.6199 23.6874 30.1568 23.8123Z" fill="black"/>
<path d="M16.9536 10.6607H22.2517C22.5442 10.6607 22.7815 10.4235 22.7815 10.1309C22.7815 9.83804 22.5442 9.60107 22.2517 9.60107H16.9536C16.661 9.60107 16.4238 9.83804 16.4238 10.1309C16.4238 10.4235 16.661 10.6607 16.9536 10.6607Z" fill="black"/>
</g>
<defs>
<clipPath id="clip0_862_362">
<rect width="32" height="32" fill="white" transform="translate(0 0.25)"/>
</clipPath>
</defs>
</svg>
