<svg width="32" height="33" viewBox="0 0 32 33" fill="none" xmlns="http://www.w3.org/2000/svg">
<g clip-path="url(#clip0_862_374)">
<path d="M16 0.25C7.1776 0.25 0 7.4276 0 16.25C0 25.0724 7.1776 32.25 16 32.25C24.8224 32.25 32 25.0724 32 16.25C32 7.4276 24.8224 0.25 16 0.25ZM16 31.1833C7.76587 31.1833 1.06667 24.4841 1.06667 16.25C1.06667 8.01587 7.76587 1.31667 16 1.31667C24.2341 1.31667 30.9333 8.01587 30.9333 16.25C30.9333 24.4841 24.2341 31.1833 16 31.1833Z" fill="black"/>
<path d="M16.0003 3.44995C15.7059 3.44995 15.4669 3.68835 15.4669 3.98328V16.25H7.46693C7.17253 16.25 6.93359 16.4884 6.93359 16.7833C6.93359 17.0782 7.17253 17.3166 7.46693 17.3166H16.0003C16.2947 17.3166 16.5336 17.0782 16.5336 16.7833V3.98328C16.5336 3.68835 16.2947 3.44995 16.0003 3.44995Z" fill="black"/>
</g>
<defs>
<clipPath id="clip0_862_374">
<rect width="32" height="32" fill="white" transform="translate(0 0.25)"/>
</clipPath>
</defs>
</svg>
