<svg width="32" height="32" viewBox="0 0 32 32" fill="none" xmlns="http://www.w3.org/2000/svg">
<path d="M26.5 11.5H5.5C4.30693 11.5013 3.16311 11.9759 2.31948 12.8195C1.47585 13.6631 1.00132 14.8069 1 16V26.5C1.00132 27.6931 1.47585 28.8369 2.31948 29.6805C3.16311 30.5241 4.30693 30.9987 5.5 31H26.5C27.6931 30.9987 28.8369 30.5241 29.6805 29.6805C30.5241 28.8369 30.9987 27.6931 31 26.5V16C30.9987 14.8069 30.5241 13.6631 29.6805 12.8195C28.8369 11.9759 27.6931 11.5013 26.5 11.5ZM30 26.5C29.9989 27.4279 29.6299 28.3176 28.9737 28.9737C28.3176 29.6299 27.4279 29.9989 26.5 30H5.5C4.57207 29.9989 3.68244 29.6299 3.0263 28.9737C2.37015 28.3176 2.00106 27.4279 2 26.5V16C2.00106 15.0721 2.37015 14.1824 3.0263 13.5263C3.68244 12.8701 4.57207 12.5011 5.5 12.5H26.5C27.4279 12.5011 28.3176 12.8701 28.9737 13.5263C29.6299 14.1824 29.9989 15.0721 30 16V26.5Z" fill="black"/>
<path d="M27 24.5H24C23.6022 24.5 23.2206 24.658 22.9393 24.9393C22.658 25.2206 22.5 25.6022 22.5 26V27C22.5 27.3978 22.658 27.7794 22.9393 28.0607C23.2206 28.342 23.6022 28.5 24 28.5H27C27.3978 28.5 27.7794 28.342 28.0607 28.0607C28.342 27.7794 28.5 27.3978 28.5 27V26C28.5 25.6022 28.342 25.2206 28.0607 24.9393C27.7794 24.658 27.3978 24.5 27 24.5ZM27.5 27C27.5 27.1326 27.4473 27.2598 27.3536 27.3536C27.2598 27.4473 27.1326 27.5 27 27.5H24C23.8674 27.5 23.7402 27.4473 23.6464 27.3536C23.5527 27.2598 23.5 27.1326 23.5 27V26C23.5 25.8674 23.5527 25.7402 23.6464 25.6464C23.7402 25.5527 23.8674 25.5 24 25.5H27C27.1326 25.5 27.2598 25.5527 27.3536 25.6464C27.4473 25.7402 27.5 25.8674 27.5 26V27Z" fill="black"/>
<path d="M8.5 23C8.5 22.8674 8.44732 22.7402 8.35355 22.6464C8.25979 22.5527 8.13261 22.5 8 22.5H4.5C4.36739 22.5 4.24021 22.5527 4.14645 22.6464C4.05268 22.7402 4 22.8674 4 23C4 23.1326 4.05268 23.2598 4.14645 23.3536C4.24021 23.4473 4.36739 23.5 4.5 23.5H8C8.13261 23.5 8.25979 23.4473 8.35355 23.3536C8.44732 23.2598 8.5 23.1326 8.5 23Z" fill="black"/>
<path d="M14 23C14 22.8674 13.9473 22.7402 13.8536 22.6464C13.7598 22.5527 13.6326 22.5 13.5 22.5H10C9.86739 22.5 9.74021 22.5527 9.64645 22.6464C9.55268 22.7402 9.5 22.8674 9.5 23C9.5 23.1326 9.55268 23.2598 9.64645 23.3536C9.74021 23.4473 9.86739 23.5 10 23.5H13.5C13.6326 23.5 13.7598 23.4473 13.8536 23.3536C13.9473 23.2598 14 23.1326 14 23Z" fill="black"/>
<path d="M19 22.5H15.5C15.3674 22.5 15.2402 22.5527 15.1464 22.6464C15.0527 22.7402 15 22.8674 15 23C15 23.1326 15.0527 23.2598 15.1464 23.3536C15.2402 23.4473 15.3674 23.5 15.5 23.5H19C19.1326 23.5 19.2598 23.4473 19.3536 23.3536C19.4473 23.2598 19.5 23.1326 19.5 23C19.5 22.8674 19.4473 22.7402 19.3536 22.6464C19.2598 22.5527 19.1326 22.5 19 22.5Z" fill="black"/>
<path d="M25 23C25 22.8674 24.9473 22.7402 24.8536 22.6464C24.7598 22.5527 24.6326 22.5 24.5 22.5H21C20.8674 22.5 20.7402 22.5527 20.6464 22.6464C20.5527 22.7402 20.5 22.8674 20.5 23C20.5 23.1326 20.5527 23.2598 20.6464 23.3536C20.7402 23.4473 20.8674 23.5 21 23.5H24.5C24.6326 23.5 24.7598 23.4473 24.8536 23.3536C24.9473 23.2598 25 23.1326 25 23Z" fill="black"/>
<path d="M9.5 27H6C5.86739 27 5.74021 27.0527 5.64645 27.1464C5.55268 27.2402 5.5 27.3674 5.5 27.5C5.5 27.6326 5.55268 27.7598 5.64645 27.8536C5.74021 27.9473 5.86739 28 6 28H9.5C9.63261 28 9.75979 27.9473 9.85355 27.8536C9.94732 27.7598 10 27.6326 10 27.5C10 27.3674 9.94732 27.2402 9.85355 27.1464C9.75979 27.0527 9.63261 27 9.5 27Z" fill="black"/>
<path d="M16 27H12.5C12.3674 27 12.2402 27.0527 12.1464 27.1464C12.0527 27.2402 12 27.3674 12 27.5C12 27.6326 12.0527 27.7598 12.1464 27.8536C12.2402 27.9473 12.3674 28 12.5 28H16C16.1326 28 16.2598 27.9473 16.3536 27.8536C16.4473 27.7598 16.5 27.6326 16.5 27.5C16.5 27.3674 16.4473 27.2402 16.3536 27.1464C16.2598 27.0527 16.1326 27 16 27Z" fill="black"/>
<path d="M5 18.5H8C8.26522 18.5 8.51957 18.3946 8.70711 18.2071C8.89464 18.0196 9 17.7652 9 17.5V15.5C9 15.2348 8.89464 14.9804 8.70711 14.7929C8.51957 14.6054 8.26522 14.5 8 14.5H5C4.73478 14.5 4.48043 14.6054 4.29289 14.7929C4.10536 14.9804 4 15.2348 4 15.5V17.5C4 17.7652 4.10536 18.0196 4.29289 18.2071C4.48043 18.3946 4.73478 18.5 5 18.5ZM7 17.5V17H8V17.5H7ZM8 16H7V15.5H8V16ZM5 15.5H6V17.5H5V15.5Z" fill="black"/>
<path d="M25.0251 15.9394C25.1644 15.8001 25.3297 15.6896 25.5118 15.6142C25.6938 15.5388 25.8888 15.5 26.0858 15.5C26.2828 15.5 26.4779 15.5388 26.6599 15.6142C26.8419 15.6896 27.0073 15.8001 27.1466 15.9394C27.2409 16.0305 27.3672 16.0809 27.4983 16.0798C27.6294 16.0786 27.7548 16.0261 27.8475 15.9333C27.9402 15.8406 27.9928 15.7152 27.9939 15.5841C27.9951 15.453 27.9447 15.3267 27.8536 15.2324C27.3844 14.7643 26.7486 14.5015 26.0858 14.5015C25.423 14.5015 24.7873 14.7643 24.3181 15.2324C24.227 15.3267 24.1766 15.453 24.1778 15.5841C24.1789 15.7152 24.2315 15.8406 24.3242 15.9333C24.4169 16.0261 24.5423 16.0786 24.6734 16.0798C24.8045 16.0809 24.9308 16.0305 25.0251 15.9394Z" fill="black"/>
<path d="M25.0251 16.6467C24.934 16.741 24.8836 16.8673 24.8848 16.9984C24.8859 17.1295 24.9385 17.2549 25.0312 17.3476C25.1239 17.4403 25.2493 17.4929 25.3804 17.494C25.5115 17.4952 25.6378 17.4448 25.7321 17.3537C25.7786 17.3072 25.8337 17.2703 25.8944 17.2452C25.9551 17.22 26.0202 17.2071 26.0859 17.2071C26.1516 17.2071 26.2166 17.22 26.2773 17.2452C26.338 17.2703 26.3932 17.3072 26.4396 17.3537C26.5339 17.4448 26.6602 17.4952 26.7913 17.494C26.9224 17.4929 27.0478 17.4403 27.1405 17.3476C27.2332 17.2549 27.2858 17.1295 27.287 16.9984C27.2881 16.8673 27.2377 16.741 27.1466 16.6467C27.0073 16.5074 26.842 16.3969 26.66 16.3215C26.4779 16.2461 26.2829 16.2073 26.0859 16.2073C25.8889 16.2073 25.6938 16.2461 25.5118 16.3215C25.3298 16.3969 25.1644 16.5074 25.0251 16.6467Z" fill="black"/>
<path d="M11 15H17.5C17.6326 15 17.7598 14.9473 17.8536 14.8536C17.9473 14.7598 18 14.6326 18 14.5C18 14.3674 17.9473 14.2402 17.8536 14.1464C17.7598 14.0527 17.6326 14 17.5 14H11C10.8674 14 10.7402 14.0527 10.6464 14.1464C10.5527 14.2402 10.5 14.3674 10.5 14.5C10.5 14.6326 10.5527 14.7598 10.6464 14.8536C10.7402 14.9473 10.8674 15 11 15Z" fill="black"/>
<path d="M21.5 14.5C21.5 14.3674 21.4473 14.2402 21.3536 14.1464C21.2598 14.0527 21.1326 14 21 14H19.5C19.3674 14 19.2402 14.0527 19.1464 14.1464C19.0527 14.2402 19 14.3674 19 14.5C19 14.6326 19.0527 14.7598 19.1464 14.8536C19.2402 14.9473 19.3674 15 19.5 15H21C21.1326 15 21.2598 14.9473 21.3536 14.8536C21.4473 14.7598 21.5 14.6326 21.5 14.5Z" fill="black"/>
</svg>
