<svg width="20" height="20" viewBox="0 0 20 20" fill="none" xmlns="http://www.w3.org/2000/svg">
<g clip-path="url(#clip0_812_950)">
<path d="M15.8067 12.3892C15.3972 11.9628 14.9033 11.7349 14.3799 11.7349C13.8607 11.7349 13.3626 11.9586 12.9363 12.385L11.6024 13.7146C11.4927 13.6555 11.3829 13.6006 11.2774 13.5458C11.1254 13.4698 10.9819 13.398 10.8595 13.3221C9.61002 12.5285 8.47454 11.4943 7.38548 10.1562C6.85784 9.48926 6.50327 8.92785 6.24578 8.358C6.59191 8.04141 6.91272 7.71216 7.22508 7.39558C7.34327 7.27739 7.46146 7.15497 7.57966 7.03678C8.46609 6.15034 8.46609 5.00219 7.57966 4.11576L6.42729 2.96338C6.29643 2.83253 6.16135 2.69745 6.03472 2.56238C5.78145 2.30067 5.51552 2.03051 5.24115 1.77725C4.8317 1.37202 4.34204 1.15674 3.82706 1.15674C3.31209 1.15674 2.81399 1.37202 2.39188 1.77725C2.38766 1.78147 2.38766 1.78147 2.38344 1.78569L0.948249 3.23354C0.407943 3.77384 0.0998001 4.43234 0.0322619 5.19637C-0.0690454 6.42894 0.293972 7.57709 0.572568 8.32845C1.25639 10.1731 2.27791 11.8826 3.80174 13.7146C5.6506 15.9223 7.87514 17.6656 10.4163 18.894C11.3871 19.3541 12.683 19.8986 14.1309 19.9914C14.2195 19.9957 14.3124 19.9999 14.3968 19.9999C15.3719 19.9999 16.1908 19.6495 16.8324 18.9531C16.8366 18.9446 16.8451 18.9404 16.8493 18.9319C17.0688 18.666 17.322 18.4254 17.588 18.1679C17.7695 17.9949 17.9552 17.8133 18.1367 17.6234C18.5546 17.1886 18.7741 16.6821 18.7741 16.1629C18.7741 15.6395 18.5504 15.1371 18.1241 14.715L15.8067 12.3892ZM17.3178 16.834C17.3136 16.834 17.3136 16.8383 17.3178 16.834C17.1532 17.0113 16.9844 17.1717 16.8028 17.349C16.5285 17.6107 16.2499 17.8851 15.9882 18.1932C15.5618 18.6491 15.0595 18.8644 14.401 18.8644C14.3377 18.8644 14.2702 18.8644 14.2068 18.8602C12.9532 18.78 11.7881 18.2903 10.9144 17.8724C8.52519 16.7158 6.42729 15.0738 4.68396 12.9928C3.24455 11.2579 2.28213 9.65389 1.64474 7.93166C1.25217 6.8806 1.10865 6.0617 1.17197 5.28923C1.21418 4.79536 1.40413 4.38591 1.75449 4.03555L3.19389 2.59615C3.40073 2.40197 3.62023 2.29645 3.83551 2.29645C4.10144 2.29645 4.31672 2.45685 4.45179 2.59192C4.45601 2.59615 4.46024 2.60037 4.46446 2.60459C4.72195 2.84519 4.96677 3.09424 5.22426 3.36017C5.35512 3.49525 5.49019 3.63032 5.62527 3.76962L6.77764 4.92199C7.22508 5.36943 7.22508 5.7831 6.77764 6.23055C6.65523 6.35296 6.53703 6.47537 6.41462 6.59356C6.06005 6.95658 5.72236 7.29427 5.35512 7.62352C5.34667 7.63196 5.33823 7.63618 5.33401 7.64463C4.97099 8.00764 5.03853 8.36222 5.11451 8.60282C5.11873 8.61549 5.12295 8.62815 5.12718 8.64081C5.42688 9.36685 5.84899 10.0507 6.4906 10.8654L6.49482 10.8696C7.65986 12.3048 8.88821 13.4234 10.2432 14.2803C10.4163 14.39 10.5935 14.4786 10.7624 14.5631C10.9144 14.639 11.0579 14.7108 11.1803 14.7868C11.1972 14.7952 11.2141 14.8079 11.2309 14.8163C11.3745 14.8881 11.5095 14.9219 11.6488 14.9219C11.9992 14.9219 12.2187 14.7024 12.2904 14.6306L13.7341 13.187C13.8776 13.0435 14.1055 12.8704 14.3715 12.8704C14.6332 12.8704 14.8485 13.035 14.9793 13.1785C14.9835 13.1828 14.9835 13.1828 14.9878 13.187L17.3136 15.5128C17.7484 15.9434 17.7484 16.3866 17.3178 16.834Z" fill="#8EE901"/>
<path d="M10.8101 4.7574C11.9161 4.94313 12.9207 5.46656 13.7227 6.26857C14.5247 7.07059 15.0439 8.07522 15.2339 9.18116C15.2803 9.45975 15.5209 9.65392 15.7953 9.65392C15.8291 9.65392 15.8586 9.6497 15.8924 9.64548C16.2048 9.59483 16.4116 9.29935 16.3609 8.98698C16.133 7.64888 15.4998 6.42897 14.5332 5.46233C13.5665 4.49569 12.3466 3.86252 11.0085 3.63458C10.6962 3.58393 10.4049 3.79076 10.35 4.09891C10.2951 4.40705 10.4978 4.70675 10.8101 4.7574Z" fill="#8EE901"/>
<path d="M19.9771 8.82242C19.6014 6.61899 18.563 4.61395 16.9674 3.01836C15.3718 1.42277 13.3668 0.384369 11.1634 0.00868772C10.8552 -0.0461871 10.564 0.16487 10.5091 0.473013C10.4584 0.785377 10.6653 1.07664 10.9776 1.13151C12.9447 1.46498 14.7387 2.39785 16.1654 3.82037C17.5922 5.24712 18.5208 7.0411 18.8543 9.00815C18.9007 9.28675 19.1413 9.48092 19.4157 9.48092C19.4495 9.48092 19.479 9.4767 19.5128 9.47248C19.8209 9.42604 20.032 9.13056 19.9771 8.82242Z" fill="#8EE901"/>
</g>
<defs>
<clipPath id="clip0_812_950">
<rect width="20" height="20" fill="white"/>
</clipPath>
</defs>
</svg>
