<svg width="20" height="20" viewBox="0 0 20 20" fill="none" xmlns="http://www.w3.org/2000/svg">
<g clip-path="url(#clip0_849_408)">
<path d="M14.6249 12.9868C14.609 12.9851 12.3068 13.053 11.9645 10.5859C12.3448 10.3205 12.6954 9.97602 13.0042 9.55797C13.605 8.74469 13.9921 7.72445 14.13 6.6209C14.1774 6.57805 14.2166 6.52473 14.243 6.46187C14.4925 5.86754 14.619 5.23293 14.619 4.57559C14.619 2.05262 12.7159 0 10.3764 0C9.76457 0 9.17098 0.140937 8.61035 0.419258C8.39648 0.435586 8.18691 0.473203 7.98594 0.53125C7.02512 0.808867 6.24324 1.52125 5.7843 2.53727C5.33875 3.52375 5.25094 4.68504 5.53711 5.80727C5.59758 6.04434 5.67445 6.2773 5.76562 6.49988C5.79031 6.56008 5.82711 6.61145 5.87129 6.65371C6.09465 8.37617 6.91422 9.80332 8.03172 10.5825C7.68836 13.0538 5.38695 12.9852 5.37109 12.9869C3.71555 13.0431 2.38574 14.4065 2.38574 16.0755V19.5497C2.38574 19.7984 2.58734 20 2.83605 20H6.79039H13.2055H17.1599C17.4086 20 17.6103 19.7984 17.6103 19.5497V16.0755C17.6102 14.4064 16.2805 13.043 14.6249 12.9868ZM8.23598 1.39652C8.40031 1.34902 8.57387 1.32086 8.75184 1.31285C8.81789 1.30988 8.88246 1.29242 8.94102 1.26164C9.39691 1.02211 9.87988 0.900664 10.3764 0.900664C12.2192 0.900664 13.7184 2.54922 13.7184 4.57559C13.7184 4.63641 13.7167 4.69691 13.714 4.75719C13.3566 4.39422 12.86 4.16863 12.3116 4.16863H9.24242C9.0598 4.16863 8.88648 4.11129 8.74113 4.00277C8.61703 3.91016 8.52109 3.78566 8.46379 3.64277C8.37504 3.42176 8.15621 3.28352 7.91801 3.29848C7.67895 3.31371 7.47777 3.47973 7.41738 3.71172C7.23953 4.39516 6.88488 5.02469 6.39832 5.5352C5.94559 3.67195 6.76266 1.82219 8.23598 1.39652ZM7.84418 9.18516C7.2582 8.4693 6.87445 7.50262 6.75281 6.4443C7.32105 5.93785 7.77027 5.30762 8.06273 4.60855C8.10711 4.64949 8.15371 4.6882 8.20238 4.72457C8.50457 4.95008 8.86418 5.06934 9.24246 5.06934H12.3116C12.7459 5.06934 13.1202 5.3298 13.2872 5.70258C13.2872 5.70578 13.2867 5.70883 13.2867 5.71203C13.2867 8.25414 11.8117 10.3223 9.99867 10.3223C9.20961 10.3223 8.44441 9.91848 7.84418 9.18516ZM8.87891 11.0247C9.2359 11.1539 9.61141 11.223 9.99867 11.223C10.3829 11.223 10.7582 11.1561 11.1175 11.0271C11.2824 11.8861 11.76 12.6348 12.4272 13.1503L10.0625 16.5178C10.0471 16.5398 10.0257 16.5509 9.99879 16.5509C9.97195 16.5509 9.95051 16.5397 9.93512 16.5178L7.56988 13.1495C8.23707 12.6335 8.71453 11.8843 8.87891 11.0247ZM16.7096 19.0993H13.2055H6.79039H3.28637V16.0754C3.28637 14.8675 4.26906 13.8848 5.47695 13.8848C5.49336 13.8848 6.21801 13.8672 6.79059 13.607L9.19797 17.0354C9.38094 17.296 9.68031 17.4516 9.99875 17.4516C9.99875 17.4516 9.99875 17.4516 9.99879 17.4516C10.3172 17.4516 10.6166 17.296 10.7996 17.0354L13.2065 13.6075C13.8595 13.8848 14.5026 13.8848 14.519 13.8848C15.7269 13.8848 16.7096 14.8675 16.7096 16.0754V19.0993Z" fill="black"/>
</g>
<defs>
<clipPath id="clip0_849_408">
<rect width="20" height="20" fill="white"/>
</clipPath>
</defs>
</svg>
