<svg width="20" height="20" viewBox="0 0 20 20" fill="none" xmlns="http://www.w3.org/2000/svg">
<path d="M19.8241 18.98L14.9638 14.1197C16.2675 12.6208 17.0569 10.6652 17.0569 8.52772C17.0569 3.82262 13.2298 0 8.52918 0C3.82408 0 0.00146484 3.82705 0.00146484 8.52772C0.00146484 13.2284 3.82852 17.0554 8.52918 17.0554C10.6667 17.0554 12.6223 16.2661 14.1212 14.9623L18.9815 19.8226C19.0968 19.9379 19.252 20 19.4028 20C19.5536 20 19.7088 19.9424 19.8241 19.8226C20.0547 19.592 20.0547 19.2106 19.8241 18.98ZM1.19437 8.52772C1.19437 4.48337 4.48484 1.19734 8.52475 1.19734C12.5691 1.19734 15.8551 4.4878 15.8551 8.52772C15.8551 12.5676 12.5691 15.8625 8.52475 15.8625C4.48484 15.8625 1.19437 12.5721 1.19437 8.52772Z" fill="black"/>
</svg>
