<svg width="20" height="20" viewBox="0 0 20 20" fill="none" xmlns="http://www.w3.org/2000/svg">
<g clip-path="url(#clip0_849_415)">
<path d="M19.9167 3.4999C19.8334 3.41657 19.75 3.33322 19.5834 3.33322H3.75L3.33332 1.16657C3.33332 0.999893 3.08332 0.833252 2.91664 0.833252H0.416641C0.16668 0.833213 0 0.999893 0 1.24989C0 1.49989 0.16668 1.66657 0.41668 1.66657H2.58336L4.58336 11.8333C4.83336 13.1666 6.08336 14.1666 7.41668 14.1666H17C17.25 14.1666 17.4167 13.9999 17.4167 13.7499C17.4167 13.4999 17.25 13.3332 17 13.3332H7.5C6.83332 13.3332 6.16668 12.9999 5.83332 12.4165L18 10.7499C18.1667 10.7499 18.3333 10.5832 18.3333 10.4166L20 3.7499C20 3.7499 20 3.58322 19.9167 3.4999ZM17.5833 9.9999L5.41664 11.5832L3.91664 4.08322H19L17.5833 9.9999Z" fill="black"/>
<path d="M7.08332 15C5.91668 15 5 15.9167 5 17.0833C5 18.25 5.91668 19.1666 7.08332 19.1666C8.25 19.1666 9.16664 18.25 9.16664 17.0833C9.16668 15.9167 8.25 15 7.08332 15ZM7.08332 18.3333C6.41664 18.3333 5.83332 17.75 5.83332 17.0833C5.83332 16.4167 6.41664 15.8333 7.08332 15.8333C7.75 15.8333 8.33332 16.4167 8.33332 17.0833C8.33332 17.75 7.75 18.3333 7.08332 18.3333Z" fill="black"/>
<path d="M15.4149 15C14.2482 15 13.3315 15.9167 13.3315 17.0833C13.3315 18.25 14.2482 19.1666 15.4149 19.1666C16.5815 19.1666 17.4982 18.25 17.4982 17.0833C17.4982 15.9167 16.5815 15 15.4149 15ZM15.4149 18.3333C14.7482 18.3333 14.1649 17.75 14.1649 17.0833C14.1649 16.4167 14.7482 15.8333 15.4149 15.8333C16.0815 15.8333 16.6649 16.4167 16.6649 17.0833C16.6649 17.75 16.0815 18.3333 15.4149 18.3333Z" fill="black"/>
</g>
<defs>
<clipPath id="clip0_849_415">
<rect width="20" height="20" fill="white"/>
</clipPath>
</defs>
</svg>
